inDegrees=no
num_controls=7
num_derivatives=13
num_iterations=120
num_multipliers=7
num_parameters=0
num_slacks=7
num_states=26
objective=5.650524
objective_accelerations=0.875586
objective_balance=0.024631
objective_effort=0.198253
objective_height=4.433411
objective_ligament=0.118643
solver_duration=1317.160634
status=Solve_Succeeded
success=true
DataType=double
version=3
OpenSimVersion=4.4-2022-07-23-0e9fedc
endheader
time	/jointset/ground_pelvis/pelvis_tilt/value	/jointset/ground_pelvis/pelvis_tx/value	/jointset/ground_pelvis/pelvis_ty/value	/jointset/hip_l/hip_flexion_l/value	/jointset/hip_l/hip_adduction_l/value	/jointset/hip_l/hip_rotation_l/value	/jointset/back/lumbar_extension/value	/jointset/patellofemoral_l/patellar_flexion_l/value	/jointset/knee_l/knee_flexion_l/value	/jointset/knee_l/knee_adduction_l/value	/jointset/knee_l/knee_rotation_l/value	/jointset/ankle_l/ankle_angle_l/value	/jointset/subtalar_l/subtalar_angle_l/value	/jointset/ground_pelvis/pelvis_tilt/speed	/jointset/ground_pelvis/pelvis_tx/speed	/jointset/ground_pelvis/pelvis_ty/speed	/jointset/hip_l/hip_flexion_l/speed	/jointset/hip_l/hip_adduction_l/speed	/jointset/hip_l/hip_rotation_l/speed	/jointset/back/lumbar_extension/speed	/jointset/patellofemoral_l/patellar_flexion_l/speed	/jointset/knee_l/knee_flexion_l/speed	/jointset/knee_l/knee_adduction_l/speed	/jointset/knee_l/knee_rotation_l/speed	/jointset/ankle_l/ankle_angle_l/speed	/jointset/subtalar_l/subtalar_angle_l/speed	/forceset/tau_hip_flexion_l	/forceset/tau_hip_adduction_l	/forceset/tau_hip_rotation_l	/forceset/tau_knee_flexion_l	/forceset/tau_ankle_angle_l	/forceset/tau_subtalar_angle_l	/forceset/tau_lumbar_extension	lambda_cid13_p0	lambda_cid13_p1	lambda_cid13_p2	lambda_cid13_p3	lambda_cid13_p4	lambda_cid13_p5	lambda_cid14_p0	/jointset/ground_pelvis/pelvis_tilt/accel	/jointset/ground_pelvis/pelvis_tx/accel	/jointset/ground_pelvis/pelvis_ty/accel	/jointset/hip_l/hip_flexion_l/accel	/jointset/hip_l/hip_adduction_l/accel	/jointset/hip_l/hip_rotation_l/accel	/jointset/back/lumbar_extension/accel	/jointset/patellofemoral_l/patellar_flexion_l/accel	/jointset/knee_l/knee_flexion_l/accel	/jointset/knee_l/knee_adduction_l/accel	/jointset/knee_l/knee_rotation_l/accel	/jointset/ankle_l/ankle_angle_l/accel	/jointset/subtalar_l/subtalar_angle_l/accel	gamma_cid13_p0	gamma_cid13_p1	gamma_cid13_p2	gamma_cid13_p3	gamma_cid13_p4	gamma_cid13_p5	gamma_cid14_p0
1	-0.5141180099123103	-0.01200414152497804	0.5484671146809904	1.879358472815078	-0.3386483701792464	0.1593431146605093	-0.4363303229096554	1.615811645503908	1.615811645503696	0.08651042824777475	-0.174530964260571	0.4346451642696799	0.2616766019398715	-0.1465341332947658	-0.005803305899355897	0.03314118494572207	0.0338745202977759	-0.0002006537862620807	-0.06479803793397558	5.018099303554242e-06	-0.1519101557711412	-0.151910155771128	0.003126368088535971	2.774734063766501e-06	-0.05281896954961407	-0.03315236349409727	-0.2742453773438024	0.03142794977644976	-0.018747844789934	-0.2863277032140057	-0.05121837207066161	0.009830066473966488	0.2285715168924995	-49.75392503077316	9.77400443278855	-7.929281106761172	10.29875946731009	-553.3160998583378	-65.7094074509146	-0.02317314003709355	1.611104761060941	0.1120907430542743	2.256652302661897	-7.280750242162842	-0.2982993173495097	-1.769504580994827	-0.01914243009805325	-5.973800942111247	-5.973800942111309	-0.8883379538289	-0.03790655716806278	-0.8298073151435281	-0.988558035056366	-1.415230462910641e-09	-1.597991147425259e-07	-6.29737835611415e-08	-1.666390258548268e-08	-9.613479329702266e-09	-2.276889369068658e-07	6.171141439862039e-09
1.01	-0.5155035350734887	-0.01205654047325454	0.5489111446704851	1.879334226570608	-0.3386644331615262	0.1586089675597223	-0.4363302995272381	1.613994274884767	1.613994274884701	0.08649613737464171	-0.1745309342990183	0.4340755294809039	0.2612971120377309	-0.1305616086064342	-0.004666544874661884	0.05565479729491058	-0.03870931412455939	-0.003004217544413696	-0.08202095646695927	-3.171563762509888e-07	-0.2115550033518453	-0.2115550033518168	-0.005976351007121215	2.528101787743551e-06	-0.0611186805401756	-0.04273294083917144	-0.2745410428067206	0.03146026230637129	-0.01879129401322166	-0.2855235815461764	-0.05124230700803631	0.009883883648346871	0.2287060082144462	-49.71751924639555	9.715984861181507	-7.887737522085751	10.11261634995599	-553.1001015485855	-65.58108666949823	-0.0231888721648724	1.591720078760599	0.1159539607400156	2.247210172124952	-7.245031700929062	-0.2702128167105124	-1.697131233501373	0.008774595290379272	-5.958483515440523	-5.958483515438201	-0.9200228422454511	0.01877993658536281	-0.8316665873793073	-0.9408618008180119	-1.576169793331886e-09	-2.079713216613205e-07	-9.485964399641874e-08	-2.815238411918065e-08	-1.583814177136705e-08	-2.879844005573703e-07	7.759905970101727e-09
1.02	-0.5167290562365709	-0.01209727477557148	0.5495800096776864	1.878584575650186	-0.3387082973637192	0.1577029021247957	-0.4363303287636585	1.61158072441994	1.611580724420018	0.08639106251957542	-0.1745309340732094	0.4334225748629486	0.2608222055188224	-0.1145333336764567	-0.003470376707443696	0.07810818848718706	-0.1112064148933081	-0.005760897769068307	-0.09918170476199337	-5.505668327908649e-06	-0.2711461249081695	-0.2711461249081252	-0.01503042829522981	-3.172416779190866e-06	-0.06948293538540817	-0.05223568684764838	-0.2748367082696337	0.03149257483629551	-0.01883474323654558	-0.2847194598783482	-0.05126624194541091	0.009937700822732463	0.2288404995364006	-49.68441939472972	9.657670105952288	-7.845148157966728	9.928030910227788	-552.9814349746229	-65.44287048563918	-0.02320654236533493	1.622254809390108	0.1239721715591292	2.244608071279496	-7.263403511445552	-0.288922610650112	-1.757070533404887	-0.01911308135253691	-5.963055737235247	-5.963055737235237	-0.8786095923192063	-0.03899733442623014	-0.8427160860776958	-0.9729917677368984	-1.054663500962196e-09	-2.551538986320471e-07	-1.224966511068704e-07	-4.085283170112681e-08	-2.189711066112785e-08	-3.444727155350595e-07	8.678248120999371e-09
1.03	-0.5177938808174862	-0.01212575259974503	0.55047301968901	1.877110543685876	-0.3387794130824501	0.1566255491736569	-0.4363303830582673	1.608571616935922	1.60857161693592	0.08619581771814491	-0.1745309804742339	0.432685466624127	0.2602526941572813	-0.09840879858463281	-0.002215462737155935	0.1004751490011615	-0.1835705948495161	-0.008447245254975779	-0.1162715048369037	-2.928828167639518e-06	-0.3306580596315191	-0.3306580596314814	-0.02400507506440203	-4.392038702191791e-06	-0.07796803106298809	-0.06165160950144273	-0.275061774142003	0.03149809465274431	-0.01884883967053721	-0.2835378180138288	-0.05161749910898286	0.01010696285600436	0.2289351602901598	-49.72186811305217	9.523971719496474	-7.747594448859493	9.846036214942524	-552.5853154836243	-65.38563445922803	-0.0232327728621004	1.610969677614978	0.1276990281388409	2.229934697434966	-7.218518736101985	-0.2562184601629288	-1.682342442491822	0.01030673030493034	-5.942667423764824	-5.942667423765794	-0.9048933941277634	0.01952326135260391	-0.8558180220427012	-0.9235800313057478	-5.261934777476974e-10	-3.023263773379975e-07	-1.500903025711503e-07	-5.35656462835653e-08	-2.795438880035903e-08	-4.009221820569034e-07	9.589749227209849e-09
1.04	-0.5186967766837721	-0.01214139168054064	0.5515891382366684	1.874913751222327	-0.3388769378045599	0.1553778166821767	-0.4363303388517723	1.604967909087894	1.604967909087812	0.0859112262140013	-0.1745309975639825	0.4318626250858403	0.2595894860657814	-0.08214759075135757	-0.0009026280318569573	0.1227298957542618	-0.2557585147414722	-0.01104269844496049	-0.1332576128301229	1.419455617367538e-05	-0.390066197710068	-0.3900661977100356	-0.03289976883003274	2.689836491782121e-06	-0.08662959527834808	-0.070975032839439	-0.2752868400143783	0.03150361446919653	-0.01886293610463313	-0.2823561761493125	-0.05196875627255231	0.01027622488928536	0.2290298210439151	-49.76299576746978	9.390192811393572	-7.649199783069299	9.766117035000866	-552.2885946071489	-65.31932132237125	-0.02326081561192661	1.649589357680377	0.1355563185613852	2.222165319104676	-7.228151498595214	-0.2707437514655468	-1.736332117066639	-0.01620377251649303	-5.942296408275086	-5.942296408274833	-0.8626189916109214	-0.0373370350027921	-0.8780097936336805	-0.954491904577243	-1.864139311834031e-09	-3.443240177733029e-07	-1.802470579312479e-07	-6.068849028867969e-08	-3.404440230818923e-08	-4.492874326074554e-07	1.09074016257652e-08
1.05	-0.5194364621545057	-0.01214346406062122	0.5529271748512301	1.871996064151613	-0.3389999974752564	0.1539607601888671	-0.4363301211682318	1.600770745844855	1.600770745844892	0.08553810796909285	-0.1745309778499258	0.4309524047875329	0.258833546449119	-0.06577709597327504	0.0005125214625300968	0.1448518566974566	-0.3277383007694236	-0.01355515159887072	-0.1501316289844263	2.651701762274935e-05	-0.4493384584903988	-0.4493384584904071	-0.04170891301615248	9.485358430501901e-07	-0.09543133759780911	-0.08018912916157965	-0.2748653823102696	0.03146527142173092	-0.01881892598694009	-0.2815397528810767	-0.05126178880018165	0.01046221056037296	0.2287354140308933	-49.43169276271473	9.217693415212121	-7.583185830188017	9.265751277573406	-551.6790350815604	-65.31714404272594	-0.02329124190064967	1.63263920234884	0.1481360844023912	2.203367824243901	-7.176804159057814	-0.2393505009679748	-1.659646924667817	0.009526484696807164	-5.915494512802277	-5.915494512808564	-0.8878432532338076	0.01829474372543666	-0.8838056380104935	-0.9012174448549631	-3.260410641461004e-09	-3.861599445126508e-07	-2.104839102880897e-07	-6.763664771325272e-08	-4.013543879628815e-08	-4.974000514089046e-07	1.223774625220632e-08
1.06	-0.5200120707445623	-0.01213065658185291	0.5544856623436867	1.868359796819779	-0.3391477525582159	0.1523756214220031	-0.4363298650142364	1.595981699274034	1.5959816992742	0.08507734205804006	-0.1745309980645979	0.4299536572286482	0.2579861960794713	-0.04933221461613187	0.002073343737922561	0.1668200713333154	-0.3994745669638876	-0.01598178089735334	-0.1668740675409543	2.188864791754635e-05	-0.508442863266337	-0.5084428632663883	-0.05042930204712058	-5.29591195247308e-06	-0.1043350473935957	-0.08925718343662029	-0.2744439246062236	0.03142692837426989	-0.01877491586940984	-0.2807233296128421	-0.05055482132779686	0.01064819623147998	0.228441007017808	-49.10438219721487	9.045050760099773	-7.516186591105503	8.769383010770843	-551.1688826972737	-65.30766833941713	-0.02332351744355536	1.664466673492507	0.1646908747624741	2.191416057637467	-7.179447531897758	-0.2535789803799966	-1.710016597511502	-0.01959393874759439	-5.908725207396562	-5.908725207396786	-0.8448679605806051	-0.03823766443208162	-0.8984032888987774	-0.9252834951571902	-2.908280010885426e-09	-4.264094599633298e-07	-2.313179908585825e-07	-7.795229106114913e-08	-4.517659654861008e-08	-5.387235615656438e-07	1.212647393461771e-08
1.07	-0.5204227145843638	-0.01210153573274293	0.5562629698635947	1.864007554518676	-0.3393192833175287	0.1506236927520764	-0.4363298244852643	1.590602532294218	1.590602532294195	0.08452994937509434	-0.1745311039130044	0.4288651506675087	0.2570488804601463	-0.03277062659133684	0.003772751958427653	0.1886067041546487	-0.4709170954478161	-0.01830330113001882	-0.1834829159379474	-2.456548721172492e-05	-0.567354366859516	-0.567354366859565	-0.05902999704654978	-1.394473711855584e-05	-0.1134035626441893	-0.09818150629512995	-0.2738952925229169	0.03137005983669926	-0.01870477347438618	-0.2795210817893902	-0.05017833884228469	0.01094578753221488	0.2280511727469053	-48.84840181243454	8.799733160657713	-7.395687909046488	8.398784206484621	-550.3339731866824	-65.37095493278036	-0.0233646320291887	1.655891608872633	0.1758368390405377	2.167067517477719	-7.118138516923414	-0.2182379154635834	-1.63203074286995	0.001211451860011359	-5.876940444730223	-5.876940444729667	-0.8648182622300825	0.01803128143733223	-0.9166921222043672	-0.8722369884128101	-2.463149276043743e-09	-4.665745918348243e-07	-2.516519239936312e-07	-8.844705600071168e-08	-5.016190968732683e-08	-5.796859489221324e-07	1.193851986468708e-08
